<svg xmlns="http://www.w3.org/2000/svg" version="1.1" xmlns:xlink="http://www.w3.org/1999/xlink" xmlns:svgjs="http://svgjs.com/svgjs" width="1440" height="560" preserveAspectRatio="none" viewBox="0 0 1440 560"><g mask="url(&quot;#SvgjsMask1041&quot;)" fill="none"><rect width="1440" height="560" x="0" y="0" fill="url(#SvgjsRadialGradient1042)"></rect><path d="M727.48 622.19C845.11 550.64 787.85 142.54 995.17 140.89 1202.48 139.24 1380.34 407.45 1530.54 415.29" stroke="rgba(255, 255, 255, 1)" stroke-width="2"></path><path d="M400.66 649.51C543.17 590.68 478.16 153.53 761.89 149.66 1045.62 145.79 1299.23 311.06 1484.35 312.06" stroke="rgba(255, 255, 255, 1)" stroke-width="2"></path><path d="M677.84 669.68C791.11 604.69 726.43 224.64 939.9 217.79 1153.37 210.94 1329.73 334.67 1464.02 335.39" stroke="rgba(255, 255, 255, 1)" stroke-width="2"></path><path d="M751.86 595.62C846.6 581.77 798.7 371.31 1051.93 357.64 1305.17 343.97 1491.49 131.91 1652.08 128.04" stroke="rgba(255, 255, 255, 1)" stroke-width="2"></path><path d="M150.72 658.44C359.72 639.88 500.28 208.62 858.85 207.91 1217.41 207.2 1381.31 429.26 1566.97 431.91" stroke="rgba(255, 255, 255, 1)" stroke-width="2"></path></g><defs><mask id="SvgjsMask1041"><rect width="1440" height="560" fill="#ffffff"></rect></mask><radialGradient cx="100%" cy="100%" r="1545.06" gradientUnits="userSpaceOnUse" id="SvgjsRadialGradient1042"><stop stop-color="#0e2a47" offset="0"></stop><stop stop-color="rgba(0, 196, 204, 1)" offset="1"></stop></radialGradient></defs></svg>